<?xml version="1.0" encoding="UTF-8"?>
<svg width="185px" height="82px" viewBox="0 0 185 82" version="1.1" xmlns="http://www.w3.org/2000/svg" xmlns:xlink="http://www.w3.org/1999/xlink">
    <!-- Generator: Sketch 57.1 (83088) - https://sketch.com -->
    <title>Texterify</title>
    <desc>Created with Sketch.</desc>
    <g id="Page-1" stroke="none" stroke-width="1" fill="none" fill-rule="evenodd">
        <g id="Logo-Big" transform="translate(-126.000000, -41.000000)" fill="#000000" fill-rule="nonzero">
            <g id="Texterify" transform="translate(115.000000, 37.000000)">
                <path d="M54.2615067,26.48 C55.1708446,26.6560009 55.8528378,26.9639978 56.3075067,27.404 C56.7621757,27.8440022 56.9895067,28.3573304 56.9895067,28.944 C56.9895067,29.9120048 56.7181761,30.6159978 56.1755067,31.056 C55.6328374,31.4960022 54.7748459,31.6720004 53.6015067,31.584 C50.9614935,31.3786656 48.9008475,31.2393337 47.4195067,31.166 C45.938166,31.0926663 43.9948521,31.0413335 41.5895067,31.012 C40.504168,36.4093603 39.5068446,41.8359727 38.5975067,47.292 C38.2748385,49.2866766 37.9375085,51.5966535 37.5855067,54.222 C37.233505,56.8473465 36.9988407,58.9666586 36.8815067,60.58 C36.8228398,61.4306709 36.4708433,62.0833311 35.8255067,62.538 C35.1801702,62.9926689 34.4028446,63.22 33.4935067,63.22 C32.5255019,63.22 31.7775094,62.9853357 31.2495067,62.516 C30.7215041,62.0466643 30.4575067,61.4306705 30.4575067,60.668 C30.4575067,59.9639965 30.5675056,58.7980081 30.7875067,57.17 C31.0075078,55.5419919 31.2641719,53.8333423 31.5575067,52.044 C31.880175,50.2546577 32.1295059,48.7000066 32.3055067,47.38 C32.628175,45.1506555 32.994838,42.936011 33.4055067,40.736 C33.8161755,38.535989 34.226838,36.4533432 34.6375067,34.488 C34.7255072,34.0479978 34.8281728,33.5420029 34.9455067,32.97 C35.0628407,32.3979971 35.1948393,31.7600035 35.3415067,31.056 C32.4668257,31.1440004 30.2081816,31.3786648 28.5655067,31.76 C26.9228319,32.1413352 25.7568435,32.6766632 25.0675067,33.366 C24.37817,34.0553368 24.0335067,34.9426612 24.0335067,36.028 C24.0335067,37.0253383 24.3268371,37.9786621 24.9135067,38.888 C25.0308407,39.0933344 25.0895067,39.3133322 25.0895067,39.548 C25.0895067,40.1053361 24.75951,40.6259976 24.0995067,41.11 C23.4395034,41.5940024 22.7575103,41.836 22.0535067,41.836 C21.5548376,41.836 21.144175,41.6893348 20.8215067,41.396 C20.2348371,40.8973308 19.750842,40.1860046 19.3695067,39.262 C18.9881715,38.3379954 18.7975067,37.2893392 18.7975067,36.116 C18.7975067,33.6226542 19.6114986,31.6206742 21.2395067,30.11 C22.8675149,28.5993258 25.3461568,27.4920035 28.6755067,26.788 C32.0048567,26.0839965 36.2801473,25.732 41.5015067,25.732 C44.7281895,25.732 47.3021638,25.7906661 49.2235067,25.908 C51.1448497,26.0253339 52.8241662,26.2159987 54.2615067,26.48 Z M66.2593941,53.188 C66.6407294,53.188 66.941393,53.3639982 67.1613941,53.716 C67.3813952,54.0680018 67.4913941,54.5519969 67.4913941,55.168 C67.4913941,56.3413392 67.2127303,57.2506634 66.6553941,57.896 C65.5700554,59.2160066 64.037404,60.4333278 62.0573941,61.548 C60.0773842,62.6626722 57.9580721,63.22 55.6993941,63.22 C52.6193787,63.22 50.228736,62.3840084 48.5273941,60.712 C46.8260523,59.0399916 45.9753941,56.7520145 45.9753941,53.848 C45.9753941,51.8239899 46.4007232,49.9393421 47.2513941,48.194 C48.1020651,46.4486579 49.2827199,45.0626718 50.7933941,44.036 C52.3040684,43.0093282 54.0127179,42.496 55.9193941,42.496 C57.620736,42.496 58.9847223,43.0019949 60.0113941,44.014 C61.0380659,45.0260051 61.5513941,46.3973247 61.5513941,48.128 C61.5513941,50.1520101 60.8254014,51.8899927 59.3733941,53.342 C57.9213869,54.7940073 55.4647448,55.9453291 52.0033941,56.796 C52.7367311,58.1453401 54.1300505,58.82 56.1833941,58.82 C57.5034007,58.82 59.006719,58.3580046 60.6933941,57.434 C62.3800692,56.5099954 63.839388,55.3000075 65.0713941,53.804 C65.4233959,53.3933313 65.8193919,53.188 66.2593941,53.188 Z M55.1713941,46.808 C54.0860554,46.808 53.1693979,47.4386604 52.4213941,48.7 C51.6733904,49.9613396 51.2993941,51.4866577 51.2993941,53.276 L51.2993941,53.364 C53.0300695,52.9533313 54.3940558,52.3373374 55.3913941,51.516 C56.3887325,50.6946626 56.8873941,49.7413388 56.8873941,48.656 C56.8873941,48.0986639 56.7333957,47.651335 56.4253941,47.314 C56.1173926,46.976665 55.6993968,46.808 55.1713941,46.808 Z M89.8732815,53.188 C90.2546168,53.188 90.5552804,53.3639982 90.7752815,53.716 C90.9952826,54.0680018 91.1052815,54.5519969 91.1052815,55.168 C91.1052815,56.3413392 90.8266176,57.2506634 90.2692815,57.896 C88.9786084,59.421341 87.5632892,60.6899949 86.0232815,61.702 C84.4832738,62.7140051 82.7452912,63.22 80.8092815,63.22 C79.313274,63.22 77.985954,62.9413361 76.8272815,62.384 C75.6686091,61.8266639 74.7519516,61.0346718 74.0772815,60.008 C72.4052732,62.1200106 70.425293,63.176 68.1372815,63.176 C66.5239401,63.176 65.2479529,62.7066714 64.3092815,61.768 C63.3706102,60.8293286 62.9012815,59.5826744 62.9012815,58.028 C62.9012815,56.561326 63.2386115,55.3733379 63.9132815,54.464 C64.5879516,53.5546621 65.5412754,53.1 66.7732815,53.1 C67.8292868,53.1 68.3572815,53.495996 68.3572815,54.288 C68.3572815,54.4933344 68.3279485,54.8599974 68.2692815,55.388 C68.1812811,56.4440053 68.1372815,57.0453326 68.1372815,57.192 C68.1372815,58.0720044 68.518611,58.512 69.2812815,58.512 C69.8386176,58.512 70.3739456,58.1820033 70.8872815,57.522 C71.4006174,56.8619967 71.8259465,55.9600057 72.1632815,54.816 C72.5006165,53.6719943 72.6692815,52.4106736 72.6692815,51.032 C72.6692815,49.9759947 72.5372828,49.0886703 72.2732815,48.37 C72.0092802,47.6513297 71.6866168,47.292 71.3052815,47.292 C70.9826132,47.292 70.7479489,47.3726659 70.6012815,47.534 C70.4546141,47.6953341 70.3079489,47.9666648 70.1612815,48.348 C69.9852806,48.8173357 69.7506163,49.1913319 69.4572815,49.47 C69.1639467,49.7486681 68.6506185,49.888 67.9172815,49.888 C67.271945,49.888 66.7586168,49.6606689 66.3772815,49.206 C65.9959463,48.7513311 65.8052815,48.0546714 65.8052815,47.116 C65.8052815,45.6199925 66.2599436,44.4466709 67.1692815,43.596 C68.0786194,42.7453291 69.251941,42.32 70.6892815,42.32 C71.9212877,42.32 73.0359432,42.6206637 74.0332815,43.222 C75.0306198,43.8233363 75.7932789,44.6959943 76.3212815,45.84 C77.2012859,44.6666608 78.191276,43.7866696 79.2912815,43.2 C80.391287,42.6133304 81.4692762,42.32 82.5252815,42.32 C83.6692872,42.32 84.5419452,42.5839974 85.1432815,43.112 C85.7446179,43.6400026 86.0452815,44.4906608 86.0452815,45.664 C86.0452815,46.9840066 85.7959507,48.0179963 85.2972815,48.766 C84.7986124,49.5140037 84.197285,49.888 83.4932815,49.888 C82.847945,49.888 82.4079494,49.7560013 82.1732815,49.492 C81.9386137,49.2279987 81.7626154,48.8466692 81.6452815,48.348 C81.5866146,47.9959982 81.4986154,47.7320009 81.3812815,47.556 C81.2639476,47.3799991 81.0586163,47.292 80.7652815,47.292 C80.4132798,47.292 80.0392835,47.6219967 79.6432815,48.282 C79.2472795,48.9420033 78.9099496,49.8146612 78.6312815,50.9 C78.3526135,51.9853388 78.2132815,53.1146608 78.2132815,54.288 C78.2132815,55.6666736 78.5432782,56.7299963 79.2032815,57.478 C79.8632848,58.2260037 80.7652758,58.6 81.9092815,58.6 C83.0532872,58.6 84.1312765,58.2113372 85.1432815,57.434 C86.1552866,56.6566628 87.3359414,55.4466749 88.6852815,53.804 C89.0372833,53.3933313 89.4332793,53.188 89.8732815,53.188 Z M107.943169,53.188 C108.324504,53.188 108.625168,53.3639982 108.845169,53.716 C109.06517,54.0680018 109.175169,54.5519969 109.175169,55.168 C109.175169,56.3413392 108.896505,57.2506634 108.339169,57.896 C107.077829,59.4506744 105.699176,60.7266617 104.203169,61.724 C102.707161,62.7213383 100.991179,63.22 99.0551689,63.22 C93.071139,63.22 90.0791689,59.0107088 90.0791689,50.592 C90.0791689,49.3013269 90.1231685,47.9960066 90.2111689,46.676 L88.4951689,46.676 C87.6151645,46.676 87.0211705,46.5146683 86.7131689,46.192 C86.4051674,45.8693317 86.2511689,45.3560035 86.2511689,44.652 C86.2511689,43.0093251 86.9111623,42.188 88.2311689,42.188 L90.7391689,42.188 C91.2378381,38.9613172 92.0004971,36.0133467 93.0271689,33.344 C94.0538407,30.6746533 95.2931617,28.5480079 96.7451689,26.964 C98.1971762,25.3799921 99.7591606,24.588 101.431169,24.588 C102.663175,24.588 103.631165,25.1306612 104.335169,26.216 C105.039172,27.3013388 105.391169,28.6653251 105.391169,30.308 C105.391169,34.8546894 103.484521,38.8146498 99.6711689,42.188 L104.599169,42.188 C105.068505,42.188 105.405835,42.2906656 105.611169,42.496 C105.816503,42.7013344 105.919169,43.0826639 105.919169,43.64 C105.919169,45.6640101 104.261852,46.676 100.947169,46.676 L95.5791689,46.676 C95.520502,48.142674 95.4911689,49.2866626 95.4911689,50.108 C95.4911689,53.1586819 95.8504987,55.2999938 96.5691689,56.532 C97.2878392,57.7640062 98.4244945,58.38 99.9791689,58.38 C101.240509,58.38 102.355164,57.9986705 103.323169,57.236 C104.291174,56.4733295 105.435162,55.329341 106.755169,53.804 C107.107171,53.3933313 107.503167,53.188 107.943169,53.188 Z M100.243169,28.812 C99.8031667,28.812 99.3118383,29.3619945 98.7691689,30.462 C98.2264995,31.5620055 97.7131713,33.0873236 97.2291689,35.038 C96.7451665,36.9886764 96.3418372,39.1519881 96.0191689,41.528 C97.7498442,40.0319925 99.0478313,38.352676 99.9131689,36.49 C100.778507,34.627324 101.211169,32.933341 101.211169,31.408 C101.211169,29.6773247 100.888505,28.812 100.243169,28.812 Z M125.793056,53.188 C126.174392,53.188 126.475055,53.3639982 126.695056,53.716 C126.915057,54.0680018 127.025056,54.5519969 127.025056,55.168 C127.025056,56.3413392 126.746392,57.2506634 126.189056,57.896 C125.103718,59.2160066 123.571066,60.4333278 121.591056,61.548 C119.611046,62.6626722 117.491734,63.22 115.233056,63.22 C112.153041,63.22 109.762398,62.3840084 108.061056,60.712 C106.359714,59.0399916 105.509056,56.7520145 105.509056,53.848 C105.509056,51.8239899 105.934385,49.9393421 106.785056,48.194 C107.635727,46.4486579 108.816382,45.0626718 110.327056,44.036 C111.837731,43.0093282 113.54638,42.496 115.453056,42.496 C117.154398,42.496 118.518385,43.0019949 119.545056,44.014 C120.571728,45.0260051 121.085056,46.3973247 121.085056,48.128 C121.085056,50.1520101 120.359064,51.8899927 118.907056,53.342 C117.455049,54.7940073 114.998407,55.9453291 111.537056,56.796 C112.270393,58.1453401 113.663713,58.82 115.717056,58.82 C117.037063,58.82 118.540381,58.3580046 120.227056,57.434 C121.913731,56.5099954 123.37305,55.3000075 124.605056,53.804 C124.957058,53.3933313 125.353054,53.188 125.793056,53.188 Z M114.705056,46.808 C113.619718,46.808 112.70306,47.4386604 111.955056,48.7 C111.207053,49.9613396 110.833056,51.4866577 110.833056,53.276 L110.833056,53.364 C112.563732,52.9533313 113.927718,52.3373374 114.925056,51.516 C115.922395,50.6946626 116.421056,49.7413388 116.421056,48.656 C116.421056,48.0986639 116.267058,47.651335 115.959056,47.314 C115.651055,46.976665 115.233059,46.808 114.705056,46.808 Z M127.142944,63.22 C126.028271,63.22 125.243613,62.6333392 124.788944,61.46 C124.334275,60.2866608 124.106944,58.4093462 124.106944,55.828 C124.106944,52.0146476 124.649605,48.3920172 125.734944,44.96 C125.998945,44.1093291 126.431607,43.486002 127.032944,43.09 C127.63428,42.693998 128.477605,42.496 129.562944,42.496 C130.149613,42.496 130.560276,42.5693326 130.794944,42.716 C131.029612,42.8626674 131.146944,43.1413313 131.146944,43.552 C131.146944,44.0213357 130.926946,45.0773251 130.486944,46.72 C130.193609,47.8933392 129.958945,48.9199956 129.782944,49.8 C129.606944,50.6800044 129.460278,51.7653269 129.342944,53.056 C130.310949,50.5333207 131.396271,48.4800079 132.598944,46.896 C133.801616,45.3119921 134.982271,44.18267 136.140944,43.508 C137.299616,42.83333 138.362939,42.496 139.330944,42.496 C141.23762,42.496 142.190944,43.4493238 142.190944,45.356 C142.190944,45.7373352 142.058945,46.661326 141.794944,48.128 C141.560276,49.3013392 141.442944,50.0346652 141.442944,50.328 C141.442944,51.3546718 141.809607,51.868 142.542944,51.868 C143.364281,51.868 144.420271,51.2226731 145.710944,49.932 C146.092279,49.5506648 146.488275,49.36 146.898944,49.36 C147.280279,49.36 147.580943,49.528665 147.800944,49.866 C148.020945,50.203335 148.130944,50.6506639 148.130944,51.208 C148.130944,52.2933388 147.837613,53.1439969 147.250944,53.76 C146.429606,54.6106709 145.468949,55.3366637 144.368944,55.938 C143.268938,56.5393363 142.10295,56.84 140.870944,56.84 C139.316269,56.84 138.135614,56.444004 137.328944,55.652 C136.522273,54.859996 136.118944,53.7893401 136.118944,52.44 C136.118944,51.9999978 136.162943,51.5600022 136.250944,51.12 C136.309611,50.5333304 136.338944,50.1373344 136.338944,49.932 C136.338944,49.4626643 136.177612,49.228 135.854944,49.228 C135.414941,49.228 134.835614,49.7193284 134.116944,50.702 C133.398273,51.6846716 132.686947,52.9826586 131.982944,54.596 C131.27894,56.2093414 130.706946,57.9106577 130.266944,59.7 C129.944275,61.0786736 129.570279,62.0099976 129.144944,62.494 C128.719608,62.9780024 128.052282,63.22 127.142944,63.22 Z M150.360831,39.592 C149.128825,39.592 148.204834,39.3060029 147.588831,38.734 C146.972828,38.1619971 146.664831,37.3626718 146.664831,36.336 C146.664831,35.3093282 147.06816,34.4513368 147.874831,33.762 C148.681502,33.0726632 149.686158,32.728 150.888831,32.728 C151.97417,32.728 152.854161,32.9919974 153.528831,33.52 C154.203501,34.0480026 154.540831,34.7959952 154.540831,35.764 C154.540831,36.9373392 154.159502,37.8686632 153.396831,38.558 C152.634161,39.2473368 151.622171,39.592 150.360831,39.592 Z M150.008831,63.22 C148.102155,63.22 146.716169,62.5453401 145.850831,61.196 C144.985493,59.8466599 144.552831,58.0573445 144.552831,55.828 C144.552831,54.5079934 144.721496,52.8140103 145.058831,50.746 C145.396166,48.6779897 145.828828,46.7493423 146.356831,44.96 C146.620832,44.0213286 146.972829,43.3760018 147.412831,43.024 C147.852833,42.6719982 148.556826,42.496 149.524831,42.496 C151.020839,42.496 151.768831,42.9946617 151.768831,43.992 C151.768831,44.725337 151.490167,46.4266533 150.932831,49.096 C150.228828,52.3226828 149.876831,54.5079943 149.876831,55.652 C149.876831,56.5320044 149.994163,57.2066643 150.228831,57.676 C150.463499,58.1453357 150.859495,58.38 151.416831,58.38 C151.944834,58.38 152.604827,58.013337 153.396831,57.28 C154.188835,56.546663 155.244824,55.3880079 156.564831,53.804 C156.916833,53.3933313 157.312829,53.188 157.752831,53.188 C158.134166,53.188 158.43483,53.3639982 158.654831,53.716 C158.874832,54.0680018 158.984831,54.5519969 158.984831,55.168 C158.984831,56.3413392 158.706167,57.2506634 158.148831,57.896 C155.244817,61.4453511 152.53151,63.22 150.008831,63.22 Z M173.094718,50.68 C173.916056,50.68 174.326718,51.2959938 174.326718,52.528 C174.326718,54.8453449 172.50807,56.004 168.870718,56.004 C168.166715,56.004 167.154725,55.8720013 165.834718,55.608 C166.216054,57.4266758 166.531384,59.4433223 166.780718,61.658 C167.030053,63.8726777 167.154718,65.6986595 167.154718,67.136 C167.154718,70.3040158 166.64139,72.7239916 165.614718,74.396 C164.588047,76.0680084 163.238727,76.904 161.566718,76.904 C159.454708,76.904 157.95139,75.408015 157.056718,72.416 C156.162047,69.423985 155.714718,64.9066969 155.714718,58.864 C155.714718,53.2319718 156.323379,47.5193623 157.540718,41.726 C158.758058,35.9326377 160.430041,31.1366857 162.556718,27.338 C164.683396,23.5393143 167.022706,21.64 169.574718,21.64 C170.953392,21.64 172.031381,22.2559938 172.808718,23.488 C173.586056,24.7200062 173.974718,26.3773229 173.974718,28.46 C173.974718,35.3533678 169.853426,42.862626 161.610718,50.988 C161.317384,53.862681 161.170718,56.3853225 161.170718,58.556 C161.170718,61.5773484 161.273384,64.6793174 161.478718,67.862 C161.684053,71.0446826 162.021383,72.636 162.490718,72.636 C163.370723,72.636 163.810718,71.1106819 163.810718,68.06 C163.810718,65.7719886 163.65672,63.557344 163.348718,61.416 C163.040717,59.274656 162.622721,57.0160119 162.094718,54.64 C162.065385,54.2586648 162.19005,53.7746696 162.468718,53.188 C162.747387,52.6013304 163.09205,52.0880022 163.502718,51.648 C163.913387,51.2079978 164.28005,50.988 164.602718,50.988 C165.189388,50.988 165.893381,51.017333 166.714718,51.076 C166.97872,51.1053335 167.286717,51.12 167.638718,51.12 C168.812058,51.12 170.117378,51.0173344 171.554718,50.812 C171.789386,50.7826665 172.038717,50.7533335 172.302718,50.724 C172.56672,50.6946665 172.830717,50.68 173.094718,50.68 Z M168.650718,25.996 C168.122716,25.996 167.470056,26.8906577 166.692718,28.68 C165.915381,30.4693423 165.145389,32.8379853 164.382718,35.786 C163.620048,38.7340147 162.960055,41.8506502 162.402718,45.136 C164.749397,42.4666533 166.553379,39.6873478 167.814718,36.798 C169.076058,33.9086522 169.721385,31.2026793 169.750718,28.68 C169.750718,26.8906577 169.384055,25.996 168.650718,25.996 Z M186.940606,42.496 C187.615276,42.496 188.084605,42.5839991 188.348606,42.76 C188.612607,42.9360009 188.744606,43.2293313 188.744606,43.64 C188.744606,44.3440035 188.363276,46.8519784 187.600606,51.164 C186.925936,55.3000207 186.52994,57.7493295 186.412606,58.512 C185.327267,66.0507044 183.831282,72.019978 181.924606,76.42 C180.01793,80.820022 177.480622,83.02 174.312606,83.02 C172.816598,83.02 171.599277,82.5580046 170.660606,81.634 C169.721935,80.7099954 169.252606,79.5000075 169.252606,78.004 C169.252606,76.6253264 169.567936,75.2173405 170.198606,73.78 C170.829276,72.3426595 172.002597,70.692676 173.718606,68.83 C175.434614,66.967324 177.861924,64.8333454 181.000606,62.428 L181.132606,61.416 C181.33794,60.3306612 181.572605,58.7760101 181.836606,56.752 C181.249936,58.8640106 180.428611,60.4699945 179.372606,61.57 C178.316601,62.6700055 177.201945,63.22 176.028606,63.22 C174.708599,63.22 173.63061,62.6113394 172.794606,61.394 C171.958602,60.1766606 171.540606,58.6586758 171.540606,56.84 C171.540606,54.639989 171.687271,52.6233425 171.980606,50.79 C172.273941,48.9566575 172.757936,47.0133436 173.432606,44.96 C173.725941,44.0799956 174.136603,43.4493352 174.664606,43.068 C175.192609,42.6866648 176.0286,42.496 177.172606,42.496 C177.817942,42.496 178.265271,42.5986656 178.514606,42.804 C178.76394,43.0093344 178.888606,43.3173313 178.888606,43.728 C178.888606,43.9626678 178.727274,44.7546599 178.404606,46.104 C178.111271,47.1893388 177.876607,48.1719956 177.700606,49.052 C177.465938,50.2546727 177.260607,51.4059945 177.084606,52.506 C176.908605,53.6060055 176.820606,54.5079965 176.820606,55.212 C176.820606,56.3266722 177.128603,56.884 177.744606,56.884 C178.184608,56.884 178.734603,56.4440044 179.394606,55.564 C180.054609,54.6839956 180.758602,53.3493423 181.506606,51.56 C182.25461,49.7706577 182.980602,47.5706797 183.684606,44.96 C183.919274,44.0799956 184.278603,43.4493352 184.762606,43.068 C185.246608,42.6866648 185.972601,42.496 186.940606,42.496 Z M174.796606,78.752 C175.529943,78.752 176.351268,77.9013418 177.260606,76.2 C178.169944,74.4986582 179.079268,71.6680198 179.988606,67.708 C177.729928,69.6146762 176.094611,71.3526588 175.082606,72.922 C174.070601,74.4913412 173.564606,75.8626608 173.564606,77.036 C173.564606,77.5346692 173.659938,77.9453317 173.850606,78.268 C174.041273,78.5906683 174.356604,78.752 174.796606,78.752 Z"></path>
            </g>
        </g>
    </g>
</svg>