<?xml version="1.0" encoding="UTF-8"?>
<svg width="269px" height="66px" viewBox="0 0 269 66" version="1.1" xmlns="http://www.w3.org/2000/svg" xmlns:xlink="http://www.w3.org/1999/xlink">
    <title>logo_white_text</title>
    <defs>
        <filter id="filter-1">
            <feColorMatrix in="SourceGraphic" type="matrix" values="0 0 0 0 1.000000 0 0 0 0 1.000000 0 0 0 0 1.000000 0 0 0 1.000000 0"></feColorMatrix>
        </filter>
        <radialGradient cx="56.2359064%" cy="-263.125201%" fx="56.2359064%" fy="-263.125201%" r="465.660449%" gradientTransform="translate(0.562359,-2.631252),scale(1.000000,0.832387),rotate(91.193793),scale(1.000000,14.518518),translate(-0.562359,2.631252)" id="radialGradient-2">
            <stop stop-color="#6B0AEB" offset="0%"></stop>
            <stop stop-color="#D9057A" offset="100%"></stop>
            <stop stop-color="#D9057A" offset="100%"></stop>
        </radialGradient>
        <path d="M45.6671456,76.4289971 C53.7727679,76.4451154 65.3481141,72.8780793 68.3522156,65.7205493 C71.356317,58.5630193 67.9342202,57.2928469 68.2512603,47.0004344 C68.5683003,36.7080219 70.4085085,29.2291769 65.9973819,24.1661229 C61.5862553,19.1030689 51.9525137,15.8300717 43.8878414,15.8139508 C35.7257878,15.7976947 30.3623691,22.5156746 26.6858237,28.8836621 C23.0092784,35.2516496 21.4260191,39.9032473 20.110379,46.8196248 C18.7947389,53.7360022 18.1836001,60.8902847 22.5387668,66.5234506 C27.0470311,72.3546397 37.3437885,76.4123348 45.6671456,76.4289971 Z" id="path-3"></path>
        <linearGradient x1="50%" y1="0%" x2="50%" y2="133.76195%" id="linearGradient-4">
            <stop stop-color="#177DDC" offset="0%"></stop>
            <stop stop-color="#177DDC" offset="100%"></stop>
        </linearGradient>
        <radialGradient cx="56.2359064%" cy="-263.125201%" fx="56.2359064%" fy="-263.125201%" r="394.989879%" gradientTransform="translate(0.562359,-2.631252),scale(1.000000,0.981399),rotate(91.407423),scale(1.000000,14.518518),translate(-0.562359,2.631252)" id="radialGradient-5">
            <stop stop-color="#6B0AEB" offset="0%"></stop>
            <stop stop-color="#D9057A" offset="100%"></stop>
            <stop stop-color="#D9057A" offset="100%"></stop>
        </radialGradient>
        <path d="M41.1754634,75.1594092 C49.2797229,75.1594092 57.9896619,72.3453565 64.0150422,66.7035689 C70.1540178,60.9554178 73.5327223,52.3022383 73.5327223,44.0092611 C73.5327223,27.5767595 59.3807344,15.5515296 43.0194274,15.5515296 C26.6581203,15.5515296 15.03362,27.7504221 15.03362,44.1829237 C15.03362,60.6154252 24.8141564,75.1594092 41.1754634,75.1594092 Z" id="path-6"></path>
        <radialGradient cx="50%" cy="-30.3940853%" fx="50%" fy="-30.3940853%" r="360.472535%" gradientTransform="translate(0.500000,-0.303941),scale(0.234264,1.000000),scale(1.000000,0.353805),translate(-0.500000,0.303941)" id="radialGradient-7">
            <stop stop-color="#6B0AEB" offset="0%"></stop>
            <stop stop-color="#D9057A" offset="100%"></stop>
        </radialGradient>
    </defs>
    <g id="Page-1" stroke="none" stroke-width="1" fill="none" fill-rule="evenodd">
        <g id="Primary-White-Dark" transform="translate(-18.000000, -17.000000)">
            <path d="M273.508,42.108 L273.6325,42.619 C273.955,43.914 273.955,43.914 274.39,45.384 C274.912,47.148 274.912,47.148 275.524,48.966 C276.136,50.784 276.136,50.784 276.82,52.584 C277.504,54.384 277.504,54.384 278.188,55.932 C279.34,52.728 279.34,52.728 280.348,49.11 C281.356,45.492 281.356,45.492 282.184,42.108 L282.184,42.108 L286.684,42.108 L286.357111,43.2937778 C283.554,53.32 283.554,53.32 279.916,61.548 C279.196,63.168 279.196,63.168 278.44,64.32 C277.684,65.472 277.684,65.472 276.748,66.228 C275.812,66.984 275.812,66.984 274.66,67.326 C273.508,67.668 273.508,67.668 271.996,67.668 C270.988,67.668 270.988,67.668 269.998,67.452 C269.008,67.236 269.008,67.236 268.504,66.984 L268.504,66.984 L269.296,63.492 L269.619437,63.610125 C270.7495,63.996 270.7495,63.996 271.852,63.996 C273.544,63.996 273.544,63.996 274.498,63.186 C275.452,62.376 275.452,62.376 276.172,60.684 C274.12,56.724 274.12,56.724 272.23,52.044 C270.34,47.364 270.34,47.364 268.864,42.108 L268.864,42.108 L273.508,42.108 Z M164.968,41.64 C168.856,41.64 168.856,41.64 171.034,44.052 C173.212,46.464 173.212,46.464 173.212,51.252 C173.212,51.612 173.212,51.612 173.194,52.062 C173.176,52.512 173.176,52.512 173.14,52.872 L173.14,52.872 L160.72,52.872 L160.74952,53.16984 C160.9948,55.2228 160.9948,55.2228 162.322,56.382 C163.744,57.624 163.744,57.624 166.444,57.624 C168.028,57.624 168.028,57.624 169.342,57.336 C170.656,57.048 170.656,57.048 171.412,56.724 L171.412,56.724 L171.988,60.288 L171.8605,60.3485 C171.523,60.501 171.523,60.501 170.998,60.666 C170.368,60.864 170.368,60.864 169.558,61.026 C168.748,61.188 168.748,61.188 167.812,61.296 C166.876,61.404 166.876,61.404 165.904,61.404 C163.42,61.404 163.42,61.404 161.584,60.666 C159.748,59.928 159.748,59.928 158.56,58.614 C157.372,57.3 157.372,57.3 156.796,55.518 C156.22,53.736 156.22,53.736 156.22,51.612 C156.22,49.128 156.22,49.128 156.958,47.256 C157.696,45.384 157.696,45.384 158.92,44.142 C160.144,42.9 160.144,42.9 161.728,42.27 C163.312,41.64 163.312,41.64 164.968,41.64 Z M219.616,41.64 C223.504,41.64 223.504,41.64 225.682,44.052 C227.86,46.464 227.86,46.464 227.86,51.252 C227.86,51.612 227.86,51.612 227.842,52.062 C227.824,52.512 227.824,52.512 227.788,52.872 L227.788,52.872 L215.368,52.872 L215.39752,53.16984 C215.6428,55.2228 215.6428,55.2228 216.97,56.382 C218.392,57.624 218.392,57.624 221.092,57.624 C222.676,57.624 222.676,57.624 223.99,57.336 C225.304,57.048 225.304,57.048 226.06,56.724 L226.06,56.724 L226.636,60.288 L226.5085,60.3485 C226.171,60.501 226.171,60.501 225.646,60.666 C225.016,60.864 225.016,60.864 224.206,61.026 C223.396,61.188 223.396,61.188 222.46,61.296 C221.524,61.404 221.524,61.404 220.552,61.404 C218.068,61.404 218.068,61.404 216.232,60.666 C214.396,59.928 214.396,59.928 213.208,58.614 C212.02,57.3 212.02,57.3 211.444,55.518 C210.868,53.736 210.868,53.736 210.868,51.612 C210.868,49.128 210.868,49.128 211.606,47.256 C212.344,45.384 212.344,45.384 213.568,44.142 C214.792,42.9 214.792,42.9 216.376,42.27 C217.96,41.64 217.96,41.64 219.616,41.64 Z M146.356,36.42 L146.356,42.108 L153.052,42.108 L153.052,45.744 L146.356,45.744 L146.356,53.412 L146.3592,53.70864 C146.404,55.7448 146.404,55.7448 147.076,56.652 C147.796,57.624 147.796,57.624 149.524,57.624 C150.712,57.624 150.712,57.624 151.63,57.372 C152.548,57.12 152.548,57.12 153.088,56.904 L153.088,56.904 L153.808,60.36 L153.611687,60.4412812 C152.899,60.72675 152.899,60.72675 151.828,61.026 C150.604,61.368 150.604,61.368 148.948,61.368 C146.932,61.368 146.932,61.368 145.582,60.828 C144.232,60.288 144.232,60.288 143.44,59.262 C142.648,58.236 142.648,58.236 142.324,56.778 C142,55.32 142,55.32 142,53.448 L142,53.448 L142,37.14 L146.356,36.42 Z M201.004,36.42 L201.004,42.108 L207.7,42.108 L207.7,45.744 L201.004,45.744 L201.004,53.412 L201.0072,53.70864 C201.052,55.7448 201.052,55.7448 201.724,56.652 C202.444,57.624 202.444,57.624 204.172,57.624 C205.36,57.624 205.36,57.624 206.278,57.372 C207.196,57.12 207.196,57.12 207.736,56.904 L207.736,56.904 L208.456,60.36 L208.259687,60.4412812 C207.547,60.72675 207.547,60.72675 206.476,61.026 C205.252,61.368 205.252,61.368 203.596,61.368 C201.58,61.368 201.58,61.368 200.23,60.828 C198.88,60.288 198.88,60.288 198.088,59.262 C197.296,58.236 197.296,58.236 196.972,56.778 C196.648,55.32 196.648,55.32 196.648,53.448 L196.648,53.448 L196.648,37.14 L201.004,36.42 Z M180.592,42.108 L184.588,48.264 L188.584,42.108 L193.156,42.108 L186.964,51 L187.73512,52.01016 C189.2644,54.0348 189.2644,54.0348 190.69,56.094 C192.472,58.668 192.472,58.668 193.624,60.936 L193.624,60.936 L188.908,60.936 L188.7945,60.7025 C188.497,60.105 188.497,60.105 188.062,59.37 C187.54,58.488 187.54,58.488 186.946,57.534 C186.352,56.58 186.352,56.58 185.704,55.644 C185.056,54.708 185.056,54.708 184.444,53.88 C183.184,55.5 183.184,55.5 181.978,57.462 C180.772,59.424 180.772,59.424 179.98,60.936 L179.98,60.936 L175.516,60.936 L175.74064,60.49824 C176.2072,59.6112 176.2072,59.6112 176.812,58.632 C177.568,57.408 177.568,57.408 178.432,56.13 C179.296,54.852 179.296,54.852 180.214,53.574 C181.132,52.296 181.132,52.296 182.032,51.144 L182.032,51.144 L175.804,42.108 L180.592,42.108 Z M239.812,41.712 C240.244,41.712 240.244,41.712 240.82,41.766 C241.396,41.82 241.396,41.82 241.972,41.91 C242.548,42 242.548,42 243.088,42.126 C243.628,42.252 243.628,42.252 243.952,42.36 L243.952,42.36 L243.196,46.032 L243.033265,45.9802041 C242.519714,45.8237143 242.519714,45.8237143 241.702,45.654 C240.748,45.456 240.748,45.456 239.488,45.456 C238.768,45.456 238.768,45.456 237.958,45.6 C237.148,45.744 237.148,45.744 236.824,45.852 L236.824,45.852 L236.824,60.936 L232.468,60.936 L232.468,43.008 L232.755778,42.9046667 C233.938,42.494 233.938,42.494 235.618,42.126 C237.508,41.712 237.508,41.712 239.812,41.712 Z M251.368,42.108 L251.368,60.936 L247.012,60.936 L247.012,42.108 L251.368,42.108 Z M264.58,33 C266.092,33 266.092,33 267.244,33.27 C268.396,33.54 268.396,33.54 268.972,33.756 L268.972,33.756 L268.144,37.356 L267.89128,37.24512 C267.37,37.032 267.37,37.032 266.722,36.888 C265.912,36.708 265.912,36.708 264.976,36.708 C263.932,36.708 263.932,36.708 263.212,37.014 C262.492,37.32 262.492,37.32 262.06,37.86 C261.628,38.4 261.628,38.4 261.448,39.174 C261.268,39.948 261.268,39.948 261.268,40.848 L261.268,40.848 L261.268,42.108 L268.108,42.108 L268.108,45.744 L261.268,45.744 L261.268,60.936 L256.912,60.936 L256.912,40.776 L256.91677,40.416315 C257.0074,37.0365 257.0074,37.0365 258.82,35.07 C260.728,33 260.728,33 264.58,33 Z M165.004,45.276 C163.996,45.276 163.996,45.276 163.24,45.654 C162.484,46.032 162.484,46.032 161.962,46.644 C161.44,47.256 161.44,47.256 161.152,48.048 C160.864,48.84 160.864,48.84 160.756,49.668 L160.756,49.668 L168.856,49.668 C168.856,48.768 168.856,48.768 168.604,47.958 C168.352,47.148 168.352,47.148 167.866,46.554 C167.38,45.96 167.38,45.96 166.678,45.618 C165.976,45.276 165.976,45.276 165.004,45.276 Z M219.652,45.276 C218.644,45.276 218.644,45.276 217.888,45.654 C217.132,46.032 217.132,46.032 216.61,46.644 C216.088,47.256 216.088,47.256 215.8,48.048 C215.512,48.84 215.512,48.84 215.404,49.668 L215.404,49.668 L223.504,49.668 C223.504,48.768 223.504,48.768 223.252,47.958 C223,47.148 223,47.148 222.514,46.554 C222.028,45.96 222.028,45.96 221.326,45.618 C220.624,45.276 220.624,45.276 219.652,45.276 Z M249.172,33.9 C250.252,33.9 250.252,33.9 251.044,34.62 C251.836,35.34 251.836,35.34 251.836,36.6 C251.836,37.824 251.836,37.824 251.044,38.544 C250.252,39.264 250.252,39.264 249.172,39.264 C248.056,39.264 248.056,39.264 247.264,38.544 C246.472,37.824 246.472,37.824 246.472,36.6 C246.472,35.34 246.472,35.34 247.264,34.62 C248.056,33.9 248.056,33.9 249.172,33.9 Z" id="Combined-Shape" fill="#FFFFFF"></path>
            <g id="Group" transform="translate(17.966529, -0.429829)" filter="url(#filter-1)">
                <g transform="translate(-0.002199, 5.037274)">
                    <g id="Ring-Variant-A" transform="translate(0.000000, -0.000000)">
                        <g id="Planet" transform="translate(5.385826, -0.000000)" stroke-width="5">
                            <g id="Illusion-1" opacity="0.60126726" transform="translate(44.368601, 46.121474) rotate(240.000000) translate(-44.368601, -46.121474) ">
                                <use stroke="#177DDC" xlink:href="#path-3"></use>
                                <use stroke="#D9057A" xlink:href="#path-3"></use>
                                <use stroke="url(#radialGradient-2)" xlink:href="#path-3"></use>
                            </g>
                            <g id="Illusion-1" transform="translate(44.283171, 45.355469) rotate(180.000000) translate(-44.283171, -45.355469) ">
                                <use stroke="url(#linearGradient-4)" xlink:href="#path-6"></use>
                                <use stroke="#D9057A" xlink:href="#path-6"></use>
                                <use stroke="url(#radialGradient-5)" xlink:href="#path-6"></use>
                            </g>
                        </g>
                        <g id="Ring" transform="translate(6.604165, 34.144286)" fill="url(#radialGradient-7)" fill-rule="nonzero">
                            <g id="Oval" transform="translate(-0.000000, 0.000000)">
                                <path d="M74.553483,1.15418796 C77.7907303,1.42858058 81.1571391,1.80953955 82.882675,2.4623566 C85.5367627,3.46647003 87.1348963,5.35254655 86.0481423,7.89454356 C85.4830163,9.21641469 83.8520036,10.522868 81.3709704,11.7722111 L80.7834335,12.0594883 C80.5826236,12.1548968 80.3768823,12.2499484 80.1663078,12.3446241 L79.5201829,12.6275045 L79.18643,12.7680634 L78.4979118,13.0473474 L77.7818682,13.3240915 L77.0388887,13.5981817 L76.269563,13.8695043 L75.8752045,14.0040921 L75.0674647,14.2710496 L74.0228821,14.6004409 L72.9405878,14.9248404 L72.0483735,15.1806167 L70.9010995,15.4954709 L69.7193376,15.8047107 L68.7498707,16.0479109 L67.759658,16.2872616 L66.749289,16.5226491 L65.7193534,16.7539596 L64.6704406,16.9810791 L63.6031402,17.2038938 L62.2440551,17.476185 L60.8583119,17.7413497 L59.7312973,17.9482009 L58.011457,18.2494099 L56.2582031,18.5393959 L55.0717866,18.7262952 L53.8719935,18.9079218 L52.6594133,19.084162 L51.4346356,19.2549018 L50.1982498,19.4200273 L48.3231956,19.65694 L46.4253394,19.8805801 L45.1484168,20.0221102 L43.22455,20.2219937 L41.3156003,20.4044017 L40.0533304,20.5161654 L38.1769707,20.6690199 L36.938303,20.7610455 L35.7101265,20.8451558 L34.4930413,20.9213394 L33.2876478,20.9895849 L32.094546,21.0498807 L30.9143362,21.1022154 L29.7476186,21.1465776 L28.0241528,21.1981474 L26.8937914,21.2225282 L25.2276733,21.2440722 L24.1374192,21.2484 L23.0642584,21.2446865 L22.0087911,21.2329204 L20.9716174,21.2130901 L19.9533376,21.1851843 L18.9545518,21.1491914 L17.9758602,21.1050999 L17.0178631,21.0528986 L15.8503825,20.9762248 L14.717347,20.886839 L13.8365067,20.8061626 L12.9790617,20.7173248 L12.5593,20.6698417 L11.7380732,20.5687402 C11.6032601,20.5512077 11.4694843,20.533334 11.3367583,20.5151188 L10.3611928,20.3720981 L9.42616809,20.2162491 C5.28105299,19.480622 2.42180922,18.3488497 1.33989085,16.8115553 C-0.206000098,14.6150038 0.880622339,12.4586178 3.15077634,10.9425453 C4.07353028,10.3263044 6.10087334,9.44034097 9.2328055,8.28465515 C9.2043172,9.35488994 9.2043172,10.2408533 9.2328055,10.9425453 C9.26129379,11.6442373 9.32574799,12.345838 9.42616809,13.0473474 C8.35248054,13.7550208 7.58693617,14.2180149 7.12953496,14.4363294 L6.80656586,14.5957464 L7.14326443,14.6936282 L7.5982303,14.8127345 C7.67806709,14.8325537 7.75988935,14.8523474 7.84366842,14.8721013 L8.36959507,14.990031 L9.0909493,15.1350463 L9.88084638,15.2761409 L10.560309,15.3852879 L11.2805433,15.4903732 L11.6555198,15.541177 L12.4343317,15.6388758 L13.2504755,15.7307879 L14.1025752,15.8162232 L14.5416785,15.8562964 L15.6761302,15.9480749 L16.860851,16.0267686 L17.2616621,16.0495971 C20.5000632,16.2264609 24.1267194,16.2670267 27.9869379,16.1730479 L29.7845982,16.120126 C31.5977162,16.0576634 33.4555176,15.9665979 35.3427934,15.8471019 L37.2393309,15.7181354 C39.4621059,15.5566331 41.7180987,15.3565119 43.9831585,15.1180456 C53.6905709,14.0960301 63.0889063,12.4197882 70.3141495,10.4641625 L70.7809803,10.3363958 L71.6909237,10.0790469 L72.5682591,9.82006308 L73.6172753,9.49547149 L74.6111922,9.17164186 L75.365105,8.91436487 L76.2540338,8.59654965 L77.0814086,8.28465515 L77.6974404,8.04064055 L78.2714219,7.80253766 L78.8021729,7.5712898 L79.288513,7.34784028 L79.7292621,7.13313242 L80.1232398,6.92810951 L80.2405992,6.86344141 L80.0453031,6.81302375 C79.1616092,6.59095574 78.0307434,6.3959136 76.6816452,6.23731737 L75.5948333,6.10581422 L74.553483,1.15418796 Z" id="Path"></path>
                            </g>
                        </g>
                        <g id="Comet-3-Right" transform="translate(90.096444, 50.752907) rotate(67.000000) translate(-90.096444, -50.752907) translate(87.708209, 48.380237)" fill="#D9057A">
                            <path d="M2.66658129,4.66288174 C3.60989548,4.83268217 4.28210961,4.17254835 4.28210961,3.15252668 C4.28210961,2.13250501 3.70238859,1.66691026 2.7590744,1.66691026 C2.28741731,1.66691026 2.09468426,1.58702616 1.78559318,1.92125161 C1.47650209,2.25547705 1.25629398,2.81293127 1.25629398,3.3229421 C1.25629398,4.34296377 1.7232671,4.4930813 2.66658129,4.66288174 Z" id="Oval" opacity="0.504269622"></path>
                            <path d="M2.24088062,3.97651638 C3.32896611,4.13890471 4.12005631,3.41320973 4.1405717,2.31447426 C4.16108709,1.21573879 3.49966132,0.726822567 2.40816068,0.74733796 C1.86241037,0.757595657 1.64100732,0.675738596 1.27663854,1.04247798 C0.912269759,1.40921736 0.646256961,2.01447876 0.635999265,2.56384649 C0.615483872,3.66258196 1.15279513,3.81412805 2.24088062,3.97651638 Z" id="Oval" transform="translate(2.388234, 2.372670) rotate(-40.000000) translate(-2.388234, -2.372670) "></path>
                        </g>
                        <g id="Comet-2-Right" transform="translate(97.406566, 43.997901) rotate(67.000000) translate(-97.406566, -43.997901) translate(95.416371, 42.020676)" fill="#D9057A">
                            <path d="M2.11074218,3.90894421 C2.7396183,4.07874465 3.18776106,3.41861082 3.18776106,2.39858915 C3.18776106,1.37856748 2.80128038,0.912972737 2.17240425,0.912972737 C1.85796619,0.912972737 1.72947749,0.833088634 1.52341676,1.16731408 C1.31735604,1.50153952 1.17055063,2.05899374 1.17055063,2.56900457 C1.17055063,3.58902624 1.48186605,3.73914377 2.11074218,3.90894421 Z" id="Oval" opacity="0.503928961"></path>
                            <path d="M1.86740052,3.31376365 C2.77413843,3.44908726 3.43338026,2.84434144 3.45047642,1.92872855 C3.46757258,1.01311565 2.91638443,0.605685473 2.00680057,0.622781634 C1.55200864,0.631329714 1.3675061,0.563115496 1.06386545,0.868731648 C0.760224799,1.1743478 0.538547468,1.6787323 0.529999387,2.13653874 C0.512903226,3.05215164 0.960662612,3.17844004 1.86740052,3.31376365 Z" id="Oval" transform="translate(1.990195, 1.977225) rotate(-40.000000) translate(-1.990195, -1.977225) "></path>
                        </g>
                        <g id="Comet-1-Right" transform="translate(91.512040, 30.302957) rotate(67.000000) translate(-91.512040, -30.302957) translate(89.521844, 27.980594)" fill="#D9057A">
                            <path d="M2.5648955,4.61814372 C3.19377162,4.78794415 3.64191438,4.12781033 3.64191438,3.10778866 C3.64191438,2.08776699 3.2554337,1.62217225 2.62655757,1.62217225 C2.31211951,1.62217225 2.18363081,1.54228814 1.97757009,1.87651359 C1.77150936,2.21073903 1.62470396,2.76819325 1.62470396,3.27820408 C1.62470396,4.29822575 1.93601937,4.44834328 2.5648955,4.61814372 Z" id="Oval" opacity="0.50149891"></path>
                            <path d="M1.86740052,3.31376365 C2.77413843,3.44908726 3.43338026,2.84434144 3.45047642,1.92872855 C3.46757258,1.01311565 2.91638443,0.605685473 2.00680057,0.622781634 C1.55200864,0.631329714 1.3675061,0.563115496 1.06386545,0.868731648 C0.760224799,1.1743478 0.538547468,1.6787323 0.529999387,2.13653874 C0.512903226,3.05215164 0.960662612,3.17844004 1.86740052,3.31376365 Z" id="Oval" transform="translate(1.990195, 1.977225) rotate(-40.000000) translate(-1.990195, -1.977225) "></path>
                        </g>
                        <g id="Comet-3-Left" transform="translate(12.191939, 62.125258) rotate(14.000000) translate(-12.191939, -62.125258) translate(9.405665, 59.209514)" fill="#D9057A">
                            <path d="M3.15230086,5.79604599 C4.41005312,6.02244658 5.30633863,5.14226814 5.30633863,3.78223925 C5.30633863,2.42221036 4.53337727,1.80141737 3.27562501,1.80141737 C2.64674889,1.80141737 2.38977149,1.69490523 1.97765004,2.14053915 C1.5655286,2.58617308 1.27191778,3.32944537 1.27191778,4.00945982 C1.27191778,5.36948871 1.89454861,5.56964541 3.15230086,5.79604599 Z" id="Oval" opacity="0.496638808"></path>
                            <path d="M2.61436073,4.63926911 C3.8837938,4.82872216 4.80673236,3.98207801 4.83066698,2.70021997 C4.85460161,1.41836192 4.0829382,0.847959662 2.8095208,0.871894287 C2.17281209,0.8838616 1.91450854,0.788361695 1.48941163,1.21622431 C1.06431472,1.64408692 0.753966455,2.35022522 0.741999142,2.99115424 C0.718064517,4.27301229 1.34492766,4.44981605 2.61436073,4.63926911 Z" id="Oval" transform="translate(2.786273, 2.768115) rotate(-40.000000) translate(-2.786273, -2.768115) "></path>
                        </g>
                        <g id="Comet-2-Left" transform="translate(2.597677, 54.100931) rotate(67.000000) translate(-2.597677, -54.100931) translate(0.607481, 52.123706)" fill="#D9057A">
                            <path d="M2.11074218,3.90894421 C2.7396183,4.07874465 3.18776106,3.41861082 3.18776106,2.39858915 C3.18776106,1.37856748 2.80128038,0.912972737 2.17240425,0.912972737 C1.85796619,0.912972737 1.72947749,0.833088634 1.52341676,1.16731408 C1.31735604,1.50153952 1.17055063,2.05899374 1.17055063,2.56900457 C1.17055063,3.58902624 1.48186605,3.73914377 2.11074218,3.90894421 Z" id="Oval" opacity="0.497547238"></path>
                            <path d="M1.86740052,3.31376365 C2.77413843,3.44908726 3.43338026,2.84434144 3.45047642,1.92872855 C3.46757258,1.01311565 2.91638443,0.605685473 2.00680057,0.622781634 C1.55200864,0.631329714 1.3675061,0.563115496 1.06386545,0.868731648 C0.760224799,1.1743478 0.538547468,1.6787323 0.529999387,2.13653874 C0.512903226,3.05215164 0.960662612,3.17844004 1.86740052,3.31376365 Z" id="Oval" transform="translate(1.990195, 1.977225) rotate(-40.000000) translate(-1.990195, -1.977225) "></path>
                        </g>
                        <g id="Comet-1-Left" transform="translate(2.637224, 34.116559)" fill="#D9057A">
                            <path d="M3.99501729,5.64680184 C5.56720761,5.87320242 6.68756449,4.99302399 6.68756449,3.63299509 C6.68756449,2.2729662 5.72136279,1.65217321 4.14917248,1.65217321 C3.36307732,1.65217321 3.04185557,1.54566107 2.52670376,1.991295 C2.01155195,2.43692892 1.64453844,3.18020121 1.64453844,3.86021566 C1.64453844,5.22024455 2.42282697,5.42040126 3.99501729,5.64680184 Z" id="Oval" opacity="0.495435138"></path>
                            <path d="M3.04095643,5.35397919 C4.51169473,5.58724342 5.56945098,4.62214167 5.58211088,3.14483134 C5.59477077,1.66752102 4.69540072,1.00097447 3.22255495,1.01363437 C2.48613207,1.01996432 2.18619936,0.906853758 1.69945108,1.39506491 C1.21270281,1.88327607 0.861961586,2.69359943 0.855631639,3.43225459 C0.842971745,4.90956492 1.57021812,5.12071495 3.04095643,5.35397919 Z" id="Oval" transform="translate(3.218856, 3.197618) rotate(-40.000000) translate(-3.218856, -3.197618) "></path>
                        </g>
                    </g>
                </g>
            </g>
        </g>
    </g>
</svg>